<?xml version="1.0" standalone="no"?>
<!DOCTYPE svg PUBLIC "-//W3C//DTD SVG 20010904//EN"
 "http://www.w3.org/TR/2001/REC-SVG-20010904/DTD/svg10.dtd">
<svg version="1.0" xmlns="http://www.w3.org/2000/svg"
 width="778.000000pt" height="778.000000pt" viewBox="0 0 778.000000 778.000000"
 preserveAspectRatio="xMidYMid meet">
<metadata>
Created by potrace 1.14, written by Peter Selinger 2001-2017
</metadata>
<g transform="translate(0.000000,778.000000) scale(0.100000,-0.100000)"
fill="#000000" stroke="none">
<path d="M5938 7656 c-14 -10 -15 -15 -5 -25 9 -10 8 -11 -7 -5 -13 5 -17 4
-12 -4 4 -7 2 -12 -4 -12 -6 0 -8 -4 -5 -10 3 -5 2 -10 -3 -10 -5 0 -12 -8
-15 -17 -4 -10 -15 -42 -26 -72 -11 -30 -18 -58 -15 -62 3 -5 0 -9 -7 -9 -6 0
-9 -8 -6 -20 3 -11 2 -18 -3 -15 -10 6 -22 -54 -13 -68 3 -5 1 -7 -4 -4 -6 4
-14 0 -17 -9 -4 -10 -2 -13 7 -8 9 6 9 5 0 -8 -7 -8 -10 -18 -6 -21 3 -4 1 -7
-5 -7 -7 0 -12 -5 -12 -11 0 -5 6 -7 13 -4 6 4 3 -1 -7 -9 -14 -11 -15 -16 -6
-16 9 0 8 -5 -6 -16 -10 -8 -14 -13 -7 -10 6 4 14 2 18 -4 3 -5 0 -10 -8 -10
-18 0 -30 -27 -16 -36 7 -4 6 -10 0 -18 -6 -7 -8 -16 -4 -19 3 -4 2 -7 -4 -7
-6 0 -9 -14 -7 -32 2 -18 -1 -35 -8 -40 -10 -6 -10 -8 0 -8 7 0 10 -5 7 -10
-4 -6 -8 -23 -11 -38 -8 -47 -13 -57 -26 -44 -7 7 -17 8 -29 1 -15 -8 -17 -6
-12 7 4 12 3 15 -5 10 -7 -4 -12 -2 -12 5 0 8 -4 8 -16 -1 -8 -8 -14 -9 -13
-4 1 5 1 16 0 24 -1 12 -3 12 -10 2 -6 -10 -11 -9 -22 4 -12 15 -12 17 0 9 10
-5 12 -4 7 4 -6 9 -11 9 -21 1 -10 -8 -15 -8 -21 1 -5 8 -3 10 7 4 8 -5 11 -4
6 1 -5 5 -12 9 -15 9 -4 0 -13 4 -21 9 -10 7 -12 5 -7 -5 4 -8 -1 -3 -12 10
-11 13 -24 21 -31 17 -6 -4 -11 0 -12 11 0 11 -3 13 -6 5 -4 -10 -9 -9 -20 5
-8 10 -11 12 -8 5 6 -11 3 -11 -13 -1 -12 7 -19 16 -16 20 2 4 -6 5 -18 1 -14
-3 -19 -1 -14 6 5 8 1 10 -10 5 -12 -4 -15 -3 -10 5 5 8 1 10 -10 5 -12 -5
-15 -3 -9 6 6 10 3 11 -14 2 -17 -9 -21 -9 -19 1 2 7 -3 12 -11 10 -8 -2 -17
2 -21 8 -4 7 -19 13 -34 13 -14 1 -26 5 -26 10 0 4 -9 7 -20 7 -11 0 -20 5
-20 11 0 6 -9 9 -20 6 -11 -3 -23 -1 -26 5 -3 5 -12 7 -19 4 -8 -3 -15 0 -17
6 -2 5 -18 11 -36 13 -18 1 -35 5 -39 9 -3 3 -21 6 -39 6 -18 0 -44 4 -58 10
-18 7 -26 6 -26 -1 0 -8 -5 -7 -15 1 -8 7 -15 9 -15 5 0 -4 -7 -2 -15 5 -11 9
-15 9 -15 1 0 -8 -5 -9 -19 -2 -10 6 -21 8 -24 5 -3 -3 -15 0 -27 6 -18 10
-21 10 -14 -2 6 -10 5 -11 -7 -2 -8 6 -22 10 -31 9 -10 -2 -18 1 -18 6 0 5
-11 4 -25 -1 -17 -7 -25 -6 -25 1 0 8 -5 7 -15 -1 -8 -7 -15 -8 -15 -4 0 5
-32 9 -71 9 -39 0 -73 3 -75 7 -3 4 -16 3 -29 -2 -14 -5 -25 -6 -25 -1 0 12
-53 9 -62 -4 -5 -6 -8 -5 -8 3 0 6 -7 12 -16 12 -8 0 -12 -5 -9 -10 4 -6 -4
-5 -19 1 -20 9 -29 9 -41 -1 -10 -8 -19 -10 -23 -4 -10 13 -35 17 -27 4 4 -6
-3 -9 -17 -6 -13 2 -31 -1 -42 -6 -13 -7 -16 -7 -12 1 4 6 2 11 -3 11 -6 0
-11 -6 -11 -12 0 -9 -4 -8 -10 2 -6 9 -13 11 -17 5 -10 -13 -56 -18 -48 -5 3
6 -1 7 -9 4 -9 -3 -13 -11 -9 -17 4 -6 1 -7 -8 -1 -20 12 -40 14 -33 3 3 -6
-5 -8 -20 -5 -14 3 -26 1 -26 -3 0 -5 -12 -6 -26 -3 -19 3 -25 1 -20 -7 9 -14
-16 -10 -26 4 -5 6 -8 5 -8 -2 0 -7 -6 -10 -14 -7 -8 3 -17 1 -20 -5 -4 -6
-14 -7 -23 -4 -10 4 -14 2 -9 -5 4 -7 -2 -9 -19 -6 -15 3 -25 0 -25 -7 0 -7
-3 -9 -7 -6 -3 4 -13 1 -21 -6 -13 -10 -14 -9 -8 1 7 11 4 12 -11 3 -11 -6
-23 -7 -27 -4 -3 3 -6 1 -6 -5 0 -7 -3 -11 -7 -11 -5 1 -11 0 -15 -1 -7 -2
-22 -4 -59 -9 -5 0 -8 -5 -5 -10 3 -4 -6 -6 -21 -3 -20 4 -24 2 -18 -9 6 -11
5 -12 -5 -2 -11 10 -18 9 -34 -5 -11 -9 -16 -11 -12 -5 5 9 2 11 -8 7 -9 -3
-16 -10 -16 -14 0 -5 -9 -7 -20 -5 -11 2 -20 0 -20 -6 0 -5 -8 -9 -18 -9 -10
0 -24 -6 -31 -12 -11 -11 -13 -10 -7 2 5 9 2 9 -7 -2 -8 -10 -17 -15 -20 -11
-4 3 -13 1 -20 -5 -8 -7 -17 -9 -20 -5 -4 3 -7 0 -7 -7 0 -7 -3 -10 -7 -7 -3
4 -12 2 -20 -4 -7 -6 -13 -8 -13 -3 0 4 -7 -1 -16 -12 -15 -19 -16 -19 -10 1
6 19 5 19 -7 3 -8 -10 -17 -15 -20 -11 -4 3 -7 1 -7 -5 0 -7 -3 -11 -7 -11
-22 4 -33 -2 -27 -13 5 -8 2 -9 -9 -5 -10 3 -17 2 -17 -3 0 -6 -3 -9 -7 -9
-20 3 -34 -2 -28 -10 4 -8 -34 -28 -43 -22 -2 1 -13 -8 -24 -21 -11 -13 -24
-23 -30 -23 -5 0 -16 -9 -24 -19 -8 -11 -14 -17 -14 -13 0 4 -15 -7 -34 -25
-18 -18 -31 -37 -28 -42 3 -5 0 -6 -7 -2 -7 5 -18 2 -24 -7 -7 -8 -40 -40 -74
-71 -35 -31 -61 -56 -58 -56 3 0 -3 -8 -13 -18 -9 -10 -19 -18 -20 -16 -7 5
-62 -53 -62 -65 0 -6 -4 -10 -9 -8 -7 2 -61 -60 -144 -166 -12 -16 -21 -32
-20 -38 2 -5 -4 -9 -12 -9 -9 0 -12 -6 -8 -17 4 -9 2 -14 -3 -11 -11 7 -35
-17 -27 -26 4 -3 -2 -13 -13 -21 -10 -8 -15 -15 -9 -15 5 0 -1 -7 -13 -16 -19
-13 -21 -18 -10 -32 7 -10 8 -14 4 -10 -12 11 -39 -29 -30 -44 4 -6 3 -8 -3
-5 -6 4 -17 -1 -24 -10 -12 -14 -12 -16 1 -8 12 7 13 6 3 -7 -7 -8 -10 -18 -6
-21 3 -4 -1 -7 -11 -7 -9 0 -14 -4 -11 -10 3 -5 2 -10 -4 -10 -6 0 -7 -7 -4
-17 5 -12 3 -14 -7 -8 -10 6 -12 4 -7 -8 4 -10 2 -17 -5 -17 -6 0 -5 -6 3 -17
10 -11 10 -14 2 -9 -18 10 -39 -4 -22 -15 11 -7 10 -9 -4 -9 -10 0 -15 -4 -12
-10 3 -5 1 -10 -6 -10 -7 0 -10 -3 -6 -6 3 -4 0 -22 -8 -40 -8 -19 -14 -35
-14 -37 0 -1 -4 -15 -10 -30 -6 -16 -9 -32 -6 -37 3 -4 -1 -13 -9 -19 -12 -10
-33 -85 -24 -87 1 0 -3 -8 -11 -17 -7 -9 -11 -24 -7 -32 3 -8 1 -15 -5 -15 -6
0 -9 -10 -8 -22 2 -13 -2 -32 -8 -43 -9 -18 -31 -97 -36 -136 -2 -8 -6 -20
-11 -27 -4 -7 -9 -34 -11 -60 -2 -26 -6 -54 -9 -62 -3 -8 -8 -33 -10 -55 -2
-22 -7 -53 -11 -69 -6 -23 -5 -27 6 -21 12 8 12 6 1 -8 -8 -9 -11 -21 -7 -27
3 -5 2 -10 -3 -10 -5 0 -9 -15 -9 -32 -1 -37 -11 -104 -19 -130 -3 -11 0 -18
8 -18 9 0 9 -3 2 -8 -6 -4 -10 -15 -8 -24 1 -10 -1 -18 -6 -18 -4 0 -7 -20 -6
-45 1 -25 -1 -45 -5 -45 -9 0 -5 -63 6 -80 5 -8 4 -11 -2 -7 -6 4 -13 -2 -16
-13 -3 -12 -1 -18 5 -14 6 4 6 -1 -1 -13 -7 -14 -7 -24 2 -33 9 -10 9 -11 0
-6 -8 4 -13 1 -13 -8 0 -9 6 -16 13 -16 8 0 8 -3 -2 -9 -8 -5 -11 -16 -8 -25
4 -9 2 -16 -3 -16 -6 0 -10 -5 -10 -11 0 -5 6 -7 12 -3 10 6 10 5 1 -8 -7 -8
-11 -29 -9 -46 2 -18 -1 -32 -7 -32 -5 0 -4 -6 2 -14 9 -11 9 -16 0 -21 -8 -6
-7 -10 2 -16 12 -7 12 -9 0 -9 -11 0 -11 -3 0 -17 12 -14 12 -15 0 -9 -10 7
-12 3 -6 -14 5 -16 4 -20 -5 -15 -9 6 -9 3 -1 -14 8 -15 9 -21 1 -21 -6 0 -8
-4 -5 -10 3 -5 1 -18 -4 -28 -7 -13 -6 -23 2 -32 10 -10 9 -11 -2 -5 -11 6
-13 4 -8 -8 3 -10 3 -17 -2 -17 -5 0 -7 -11 -6 -25 2 -14 -1 -23 -6 -19 -5 3
-10 -7 -10 -23 -3 -60 -7 -77 -18 -81 -9 -3 -8 -8 1 -20 10 -12 10 -14 1 -8
-9 5 -12 0 -12 -16 1 -13 -3 -35 -9 -49 -6 -15 -8 -30 -5 -33 4 -3 0 -6 -7 -6
-7 0 -10 -3 -7 -7 4 -3 -1 -15 -10 -26 -13 -15 -14 -18 -3 -12 12 7 13 6 3 -7
-7 -8 -9 -19 -5 -23 4 -5 2 -5 -4 -2 -13 7 -28 -19 -19 -33 3 -4 -2 -11 -11
-14 -10 -4 -14 -14 -11 -26 3 -11 0 -18 -7 -17 -6 1 -10 -4 -9 -10 2 -7 -1
-13 -6 -13 -6 0 -8 -9 -6 -20 2 -13 -2 -20 -11 -20 -8 0 -13 -3 -12 -7 1 -5
-6 -23 -15 -40 -10 -18 -14 -33 -10 -33 5 0 0 -5 -10 -11 -9 -6 -15 -14 -12
-20 4 -5 1 -9 -5 -9 -6 0 -8 -5 -5 -10 3 -6 -1 -13 -9 -16 -9 -3 -13 -10 -10
-15 3 -5 1 -9 -5 -9 -6 0 -8 -8 -4 -17 3 -10 2 -15 -2 -11 -10 10 -48 -50 -39
-63 3 -5 0 -8 -8 -7 -7 2 -12 -5 -11 -15 0 -10 -2 -16 -5 -13 -3 4 -22 -22
-42 -56 -20 -35 -50 -81 -66 -104 -16 -23 -44 -63 -63 -90 -19 -27 -37 -51
-41 -54 -3 -3 -17 -21 -30 -40 -13 -19 -29 -40 -35 -46 -5 -6 -21 -26 -35 -44
-14 -18 -32 -40 -41 -49 -49 -48 -129 -153 -124 -161 4 -6 3 -10 -2 -9 -20 3
-34 -2 -28 -11 3 -5 1 -10 -5 -10 -7 0 -10 -7 -7 -14 4 -11 1 -13 -11 -9 -9 3
-14 3 -10 -1 3 -4 -8 -21 -24 -37 -17 -16 -28 -29 -24 -29 4 0 -16 -23 -44
-51 -28 -28 -48 -55 -44 -60 3 -5 0 -8 -8 -7 -7 2 -12 -5 -12 -14 1 -10 -1
-17 -5 -16 -19 2 -31 -3 -26 -12 3 -5 1 -10 -5 -10 -6 0 -8 -5 -4 -12 4 -6 3
-8 -3 -5 -14 9 -47 -29 -37 -44 4 -7 3 -10 -3 -6 -15 9 -36 -19 -27 -35 4 -7
4 -10 -1 -6 -9 8 -50 -11 -41 -19 3 -3 -3 -13 -12 -22 -11 -10 -12 -12 -2 -6
13 9 13 8 1 -7 -7 -10 -20 -18 -27 -18 -8 0 -14 -4 -14 -8 0 -5 -27 -37 -59
-73 -33 -35 -57 -67 -55 -71 3 -5 -2 -8 -11 -8 -11 0 -15 -5 -11 -16 3 -8 2
-13 -2 -10 -5 3 -15 -4 -23 -16 -8 -11 -24 -34 -37 -49 -13 -16 -20 -34 -16
-40 4 -7 3 -9 -3 -6 -11 7 -46 -39 -46 -60 0 -7 -4 -10 -7 -8 -4 3 -20 -14
-36 -38 -16 -23 -31 -44 -34 -47 -11 -11 -50 -70 -50 -75 0 -3 -11 -18 -25
-33 -14 -15 -25 -32 -25 -39 0 -7 -4 -13 -10 -13 -5 0 -10 -7 -10 -15 0 -8 -4
-15 -9 -15 -5 0 -13 -10 -16 -22 -4 -11 -20 -43 -36 -70 -16 -26 -25 -48 -21
-48 4 0 2 -4 -4 -8 -18 -12 -45 -72 -38 -84 4 -7 3 -8 -4 -4 -7 4 -13 2 -13
-3 -2 -13 -2 -14 -18 -71 -17 -60 -24 -91 -25 -117 -1 -11 -4 -19 -9 -16 -4 2
-7 -6 -8 -19 -2 -47 -8 -114 -13 -141 -4 -20 -2 -26 7 -21 9 6 9 4 2 -7 -16
-20 -19 -235 -4 -244 8 -6 8 -10 -2 -15 -10 -7 -10 -12 0 -23 6 -8 10 -27 7
-41 -3 -15 -1 -24 5 -21 5 4 6 11 3 17 -4 7 -2 8 4 4 6 -4 9 -13 5 -21 -3 -8
0 -15 6 -15 6 0 8 -7 5 -15 -3 -8 1 -21 10 -30 8 -9 12 -23 9 -31 -3 -9 0 -20
8 -25 11 -7 11 -9 -3 -9 -10 0 -18 -5 -18 -11 0 -5 6 -7 13 -3 6 4 4 -2 -6
-13 -14 -16 -15 -22 -5 -25 11 -4 10 -8 -1 -21 -11 -14 -11 -17 0 -17 8 0 6
-5 -6 -13 -14 -11 -15 -16 -5 -22 9 -5 11 -4 6 3 -4 7 -2 12 3 12 14 0 14 -13
-1 -28 -9 -9 -9 -12 2 -12 11 0 11 -3 2 -12 -16 -16 -15 -31 1 -23 6 4 3 -1
-7 -9 -15 -12 -16 -16 -5 -16 16 0 18 -37 4 -80 -6 -17 -4 -21 6 -14 12 6 12
5 0 -9 -9 -12 -10 -17 -2 -17 7 0 9 -5 6 -10 -4 -6 -11 -8 -16 -5 -5 3 -6 -1
-3 -9 3 -9 11 -13 18 -9 6 4 6 0 -2 -9 -10 -13 -10 -17 0 -21 10 -4 10 -6 -1
-6 -11 -1 -11 -4 -1 -16 10 -12 9 -16 -4 -21 -15 -6 -15 -8 1 -20 15 -11 619
-13 3664 -14 3638 0 3647 0 3652 20 3 11 0 20 -6 20 -8 0 -8 3 0 11 7 7 8 22
4 38 -5 14 -6 32 -4 39 3 6 -1 12 -9 12 -11 0 -11 2 1 9 9 6 10 10 2 16 -9 5
-9 10 0 21 9 11 9 14 -1 14 -8 0 -10 3 -7 7 4 3 2 12 -4 19 -7 8 -7 14 1 19 5
3 10 11 10 16 0 6 -3 8 -7 6 -5 -3 -8 15 -7 39 0 24 -2 44 -6 44 -4 0 -6 16
-5 35 0 19 -2 35 -6 35 -4 0 -5 14 -3 30 3 17 1 30 -3 30 -5 0 -10 17 -12 38
-4 66 -5 72 -11 72 -4 0 -6 10 -5 22 3 31 -5 49 -18 41 -6 -3 -7 -1 -3 5 13
21 15 51 4 58 -7 5 -8 2 -3 -6 5 -9 4 -11 -4 -6 -9 6 -9 11 0 22 9 11 8 14 -2
14 -11 0 -11 2 1 10 13 8 12 10 -4 10 -15 0 -16 3 -6 15 9 10 9 15 1 15 -6 0
-11 9 -11 21 0 13 -4 18 -12 13 -10 -5 -10 -4 -1 6 10 10 8 20 -9 43 -12 17
-17 28 -11 24 7 -4 10 0 9 10 -2 9 -8 19 -14 21 -7 2 -10 8 -7 12 6 9 -9 40
-35 75 -14 19 -14 19 4 5 19 -15 19 -14 2 18 -9 18 -14 36 -11 41 2 5 -2 12
-11 15 -10 4 -13 13 -9 27 5 16 4 19 -6 14 -9 -6 -11 -3 -6 8 3 10 2 17 -4 17
-6 0 -7 5 -4 10 3 6 -2 10 -12 10 -14 0 -15 2 -4 9 9 6 10 11 3 15 -6 4 -9 13
-5 21 3 10 -1 15 -13 15 -16 0 -17 2 -4 10 11 7 11 10 2 10 -7 0 -10 5 -7 10
3 5 2 10 -2 10 -5 0 -9 10 -10 22 -1 11 -6 24 -10 27 -4 3 -10 15 -11 26 -2
11 -8 23 -14 26 -5 3 -10 10 -10 15 0 5 -3 8 -7 7 -4 -1 -7 11 -6 28 1 18 -3
29 -12 29 -12 0 -17 12 -14 33 0 4 -4 7 -9 7 -6 0 -10 9 -10 20 0 11 -4 20
-10 20 -5 0 -9 6 -7 13 1 6 -5 11 -13 9 -8 -2 -12 0 -8 4 4 4 2 14 -5 22 -10
13 -9 15 3 8 13 -6 13 -5 0 6 -9 7 -21 32 -28 56 -7 23 -17 42 -22 42 -4 0
-11 18 -15 40 -4 22 -12 43 -17 46 -7 5 -8 2 -3 -6 5 -9 4 -11 -4 -6 -9 6 -9
11 0 22 9 11 9 14 -1 14 -7 0 -10 6 -7 14 3 8 -1 17 -9 20 -9 3 -14 12 -11 19
2 6 -3 21 -12 31 -9 11 -11 17 -5 13 6 -3 11 1 11 9 0 9 -6 13 -15 9 -10 -3
-12 0 -8 10 3 8 0 15 -6 15 -7 0 -7 4 1 14 9 10 8 16 -4 26 -9 7 -14 19 -11
27 3 8 1 11 -4 8 -6 -3 -10 3 -10 14 0 12 -4 21 -9 21 -5 0 -12 7 -15 16 -3 8
-2 12 4 9 6 -3 10 -1 10 4 0 6 -8 11 -17 12 -11 0 -13 3 -6 6 10 3 9 8 -2 20
-8 8 -13 19 -10 24 4 5 1 9 -6 9 -8 0 -7 5 2 17 8 9 9 14 4 11 -6 -4 -17 -3
-25 3 -12 7 -11 9 5 9 17 1 18 2 5 13 -14 11 -19 23 -25 57 -7 36 -18 60 -29
60 -6 0 -4 5 4 10 10 6 11 10 3 10 -7 0 -13 9 -13 20 0 11 -9 29 -20 40 -11
11 -15 20 -8 20 6 0 3 10 -8 22 -10 12 -13 18 -6 14 6 -4 12 -2 12 3 0 6 -5
11 -11 11 -5 0 -8 4 -4 9 3 5 -2 17 -11 25 -11 12 -12 16 -2 16 11 0 11 2 0 9
-8 4 -14 12 -15 17 -1 5 -5 8 -9 7 -4 -2 -5 4 -2 12 4 8 3 23 -1 33 -5 9 -9
22 -11 27 -1 6 -5 18 -9 28 -5 11 -2 17 6 17 9 0 10 3 4 8 -13 9 -13 45 -1 54
6 4 4 14 -5 24 -8 11 -9 15 -2 10 9 -5 12 1 9 23 -2 17 1 28 5 25 5 -3 9 0 9
5 0 6 -6 11 -12 11 -9 0 -10 3 -2 8 6 4 10 15 8 25 -1 9 1 17 5 17 4 0 7 9 7
19 0 11 -4 17 -9 14 -5 -3 -5 2 0 12 6 10 8 26 6 35 -3 10 0 21 7 25 8 5 7 11
-2 23 -7 9 -8 13 -2 9 7 -4 14 2 17 13 3 13 1 18 -6 13 -7 -4 -8 0 -3 13 5 10
9 25 9 32 0 6 3 12 7 12 4 0 7 7 7 15 0 8 -4 15 -9 15 -5 0 -6 6 -1 13 4 6 6
20 5 30 -2 9 2 17 7 17 6 0 11 5 11 11 0 5 -4 8 -8 5 -4 -2 -8 4 -8 14 0 10 3
17 7 14 10 -6 16 16 14 54 0 17 4 32 10 32 5 0 3 5 -5 10 -8 5 -10 10 -3 10 7
0 10 17 10 44 -1 24 2 42 7 39 5 -3 7 6 4 21 -3 14 -1 29 4 32 4 3 6 9 3 14
-3 5 -1 12 5 15 8 5 8 11 0 20 -8 9 -8 15 0 20 6 3 8 11 5 16 -4 5 -1 9 6 9 8
0 7 5 -2 17 -11 13 -11 15 -1 9 11 -6 13 -1 11 20 -2 16 0 35 5 42 4 7 9 31
11 53 1 22 5 43 9 46 3 3 0 13 -7 21 -9 13 -9 14 1 8 12 -7 14 -1 16 66 0 14
5 24 9 21 5 -3 6 4 2 16 -3 11 -2 21 3 21 5 0 8 11 7 25 -2 14 1 25 7 25 7 0
6 5 -1 14 -9 10 -9 16 -1 21 6 4 9 13 6 21 -3 8 -1 14 4 14 5 0 7 7 4 15 -4 8
-1 22 5 29 9 11 9 15 -1 18 -10 4 -10 8 -1 19 6 8 13 35 16 61 3 25 8 51 12
57 3 6 0 11 -7 11 -9 0 -10 3 -2 8 6 4 14 30 17 57 3 28 8 57 11 65 3 8 7 38
10 65 13 117 23 147 50 151 12 2 15 -4 12 -21 -3 -13 1 -26 7 -29 9 -3 9 -5 0
-5 -7 -1 -13 -9 -13 -19 0 -10 6 -24 13 -32 10 -12 9 -12 -6 -1 -15 12 -17 11
-13 -10 2 -13 -1 -30 -6 -36 -7 -9 -6 -18 3 -30 10 -11 10 -14 2 -9 -13 7 -14
1 -18 -59 -1 -11 -4 -26 -9 -33 -4 -7 -2 -12 5 -12 8 0 8 -4 -1 -15 -9 -10 -9
-15 -1 -15 6 0 10 -5 8 -12 -1 -6 9 -15 23 -19 14 -4 19 -7 12 -8 -8 -1 -10
-6 -6 -13 11 -18 12 -68 2 -68 -5 0 -6 -5 -3 -10 4 -6 12 -7 18 -3 7 3 3 -3
-7 -15 -14 -17 -16 -22 -5 -22 11 0 11 -2 -1 -10 -13 -9 -13 -10 0 -10 13 0
13 -1 0 -10 -11 -7 -11 -10 -2 -10 7 0 10 -5 7 -11 -4 -5 -9 -25 -11 -42 -4
-24 -2 -28 5 -17 7 9 11 10 11 3 0 -6 -4 -14 -9 -18 -13 -8 -12 -105 1 -105 6
0 5 -7 -3 -17 -7 -10 -1 -7 13 7 14 14 23 29 20 34 -3 5 2 7 11 3 9 -3 19 -1
23 5 4 7 3 8 -4 4 -7 -4 -12 -3 -12 2 0 6 7 13 16 16 9 4 14 9 11 13 -4 3 2
18 12 32 19 27 47 100 43 114 -1 4 2 7 7 7 5 0 12 7 15 16 4 10 2 13 -7 9 -6
-4 -3 1 7 9 14 11 15 16 6 16 -11 0 -11 3 -2 12 7 7 8 17 1 30 -7 12 -6 18 1
18 6 0 2 12 -7 27 -10 15 -12 24 -5 20 6 -5 12 -4 12 2 0 6 -4 11 -10 11 -5 0
-7 7 -3 16 3 9 0 20 -8 25 -10 6 -10 9 -1 9 6 0 12 5 12 11 0 5 -6 7 -12 3
-10 -6 -10 -4 0 7 14 15 16 33 3 25 -5 -4 -7 4 -3 16 4 16 2 19 -9 13 -8 -5
-5 2 6 15 11 13 14 20 7 16 -12 -7 -12 -4 -2 15 16 31 25 39 17 16 -4 -11 -3
-16 3 -12 6 3 10 15 10 25 0 10 5 22 10 25 7 4 7 12 0 25 -7 13 -7 21 0 25 7
5 8 11 1 19 -6 7 -6 17 -1 26 6 10 3 21 -8 34 -11 12 -12 16 -3 11 11 -6 13
-4 6 11 -4 10 -8 27 -9 37 -2 10 -8 22 -15 27 -10 6 -11 8 -1 12 10 3 10 7 -1
18 -8 8 -14 21 -15 28 -1 6 -2 21 -2 33 -1 13 -6 18 -14 13 -10 -5 -10 -4 -1
6 6 7 9 18 7 24 -3 7 11 29 31 50 34 37 41 63 20 78 -6 5 -6 8 1 8 9 0 12 38
4 48 -2 1 -3 8 -4 15 -1 6 -8 11 -15 9 -8 -2 -10 4 -6 18 4 14 1 22 -10 26
-13 6 -14 8 -3 15 10 7 10 9 1 9 -7 0 -13 5 -13 12 0 6 -10 23 -22 37 -14 15
-16 20 -5 12 17 -13 17 -13 6 12 -7 15 -17 24 -22 20 -6 -4 -8 0 -4 10 4 10 2
17 -5 17 -7 0 -6 5 2 15 6 8 9 19 5 25 -3 5 -1 10 4 10 6 0 10 3 9 8 -1 4 3
17 10 28 6 12 9 24 6 27 -3 3 -1 14 5 26 8 13 8 22 1 26 -6 4 -8 11 -5 16 4 5
-1 9 -9 9 -9 0 -15 3 -14 8 2 13 -14 42 -22 37 -4 -3 -7 3 -6 13 0 9 -4 16
-11 15 -8 -2 -10 4 -6 14 4 11 3 14 -5 9 -8 -5 -10 -2 -6 8 4 11 0 16 -11 16
-15 0 -16 2 -4 17 8 9 9 14 3 10 -8 -4 -13 4 -16 23 -2 16 -1 27 3 24 9 -5 6
37 -5 54 -4 7 -2 12 6 12 8 1 7 4 -4 10 -28 17 -11 45 28 45 18 0 34 -3 34 -6
0 -8 54 -4 69 6 10 6 12 4 6 -4 -6 -10 -3 -11 11 -3 11 6 22 11 26 12 4 1 17
4 28 7 11 3 17 10 13 16 -3 5 -1 7 4 4 14 -9 85 27 76 38 -4 5 0 3 10 -4 16
-13 19 -12 23 7 3 11 17 23 30 26 13 4 31 17 40 31 9 14 20 22 25 19 5 -3 9
-1 9 5 0 5 9 13 20 16 11 3 20 11 20 16 0 6 -5 7 -12 3 -7 -4 -8 -3 -4 5 4 6
11 9 15 7 11 -7 52 24 46 35 -3 5 0 6 8 3 7 -2 22 7 33 21 10 14 25 25 32 25
9 0 12 6 8 16 -3 9 -2 12 4 9 10 -6 55 23 58 38 1 4 4 7 7 7 9 -1 35 28 35 39
0 6 8 7 18 4 15 -6 15 -5 3 10 -12 15 -12 17 3 11 11 -4 16 -1 16 10 0 10 6
13 15 10 11 -5 13 -2 9 10 -5 12 0 19 15 23 11 3 21 10 21 15 0 5 -6 6 -12 2
-8 -4 -10 -3 -5 2 5 5 14 9 20 9 7 0 11 8 11 18 -2 15 1 16 15 5 9 -7 13 -9
10 -5 -4 5 4 19 18 33 14 14 22 31 19 39 -3 8 0 14 6 12 5 -1 12 6 13 16 2 12
-1 17 -10 13 -9 -3 -12 0 -8 9 5 14 -9 24 -39 29 -7 1 -19 6 -27 10 -9 6 -12
5 -8 -1 3 -5 0 -10 -8 -10 -8 0 -13 5 -12 11 1 6 -4 10 -10 8 -7 -1 -13 4 -13
10 0 9 -4 8 -10 -2 -6 -10 -10 -11 -10 -2 0 14 -21 12 -33 -3 -5 -6 -7 -3 -4
7 7 22 -3 30 -20 17 -10 -9 -13 -8 -13 1 0 7 -6 10 -14 7 -8 -3 -17 1 -20 9
-3 9 -9 13 -13 11 -5 -3 -19 0 -33 6 -29 11 -54 17 -92 20 -14 1 -26 4 -26 7
1 19 -4 23 -12 10 -7 -11 -10 -11 -10 -2 0 7 -5 10 -10 7 -6 -4 -16 -3 -23 2
-7 5 -25 15 -41 22 -28 11 -29 11 -15 -6 13 -17 13 -17 -7 0 -12 9 -41 19 -65
22 -24 3 -69 7 -99 10 -30 4 -60 8 -67 10 -7 2 -15 0 -17 -4 -3 -5 -17 -6 -32
-3 -16 3 -29 -1 -35 -9 -5 -8 -9 -9 -9 -3 0 6 -13 11 -30 12 -16 0 -30 -4 -30
-10 0 -6 -3 -8 -7 -5 -3 4 -13 1 -21 -6 -13 -10 -14 -9 -8 1 7 11 4 12 -11 3
-11 -6 -24 -7 -28 -3 -5 4 -5 1 -1 -5 5 -9 -1 -13 -18 -13 -14 0 -28 -5 -32
-12 -5 -7 -3 -8 6 -3 8 5 11 4 6 -3 -4 -6 -13 -9 -21 -5 -8 3 -15 0 -15 -6 0
-6 -4 -11 -10 -11 -11 0 -36 -19 -83 -62 -17 -16 -34 -28 -40 -28 -5 0 -7 -7
-4 -14 4 -10 1 -13 -9 -9 -8 3 -14 -1 -14 -9 0 -7 -9 -19 -20 -26 -11 -7 -20
-18 -20 -26 0 -8 -7 -17 -16 -20 -8 -3 -12 -10 -9 -16 3 -5 0 -10 -9 -10 -8 0
-17 -6 -19 -12 -4 -10 -6 -10 -6 0 -1 6 -9 12 -18 12 -14 0 -15 2 -4 9 7 5 11
13 7 19 -3 5 1 12 9 16 9 3 12 12 8 22 -4 12 -3 15 5 10 11 -6 17 12 13 37 -1
5 2 6 6 4 5 -3 14 1 21 9 7 8 9 14 4 14 -5 0 -9 6 -9 14 0 8 6 12 13 9 9 -3
11 2 7 18 -4 15 -2 20 5 15 7 -4 9 2 6 20 -3 16 -1 23 6 19 6 -4 8 6 6 25 -2
20 4 39 16 55 18 24 19 25 1 26 -14 0 -15 2 -3 7 17 8 22 24 23 64 0 17 4 25
11 21 6 -4 5 1 -3 10 -10 13 -10 17 -1 17 10 0 10 3 1 14 -7 9 -8 17 -2 20 8
5 8 34 1 44 -3 3 -7 19 -9 33 0 5 -6 7 -13 3 -6 -4 -8 -3 -4 4 9 14 -12 65
-24 57 -6 -3 -7 1 -4 9 3 9 1 16 -5 16 -6 0 -10 3 -10 8 4 21 -3 32 -18 32
-15 0 -16 2 -3 10 14 9 7 14 -13 11 -5 -1 -6 3 -3 8 4 5 2 12 -4 16 -6 4 -8
11 -5 16 3 5 -1 6 -10 3 -10 -4 -15 -2 -13 7 2 8 -2 13 -9 12 -8 -2 -10 4 -6
14 5 12 2 15 -10 10 -10 -4 -16 -2 -14 6 1 7 -4 11 -11 9 -8 -1 -11 2 -7 8 8
13 -26 41 -39 33 -5 -4 -6 -1 -2 5 4 7 2 12 -3 12 -6 0 -11 6 -11 13 0 8 -10
22 -22 33 l-23 19 20 -25 c20 -24 20 -25 0 -10 -29 22 -54 53 -55 68 0 7 -15
22 -32 33 -18 12 -24 18 -13 15 20 -6 20 -6 0 9 -11 9 -26 13 -34 10 -9 -3
-12 -3 -9 1 11 10 -12 45 -24 38 -6 -4 -8 -3 -4 4 3 6 -4 21 -17 34 -12 13
-25 28 -27 33 -3 6 -8 9 -12 8 -5 -2 -8 8 -8 22 0 14 -4 25 -10 25 -5 0 -12
11 -16 25 -3 14 -10 25 -16 25 -5 0 -7 4 -4 9 3 5 -1 14 -9 21 -8 7 -12 16 -9
21 8 14 -29 10 -48 -5z m277 -316 c3 -6 -1 -7 -9 -4 -18 7 -21 14 -7 14 6 0
13 -4 16 -10z m1276 -1213 c-10 -9 -11 -8 -5 6 3 10 9 15 12 12 3 -3 0 -11 -7
-18z m-5890 -3143 c-12 -19 -19 -39 -16 -44 3 -4 -2 -11 -11 -14 -8 -3 -12
-11 -9 -17 4 -6 -3 -20 -15 -31 -12 -11 -19 -26 -16 -34 3 -8 0 -13 -7 -11 -6
1 -13 -8 -15 -21 -2 -13 -8 -20 -14 -16 -7 5 -9 0 -6 -14 4 -12 3 -20 -2 -17
-8 5 -38 -34 -42 -57 -2 -7 -5 -15 -8 -18 -16 -14 -93 -135 -94 -148 -2 -8
-10 -20 -19 -27 -9 -7 -17 -20 -17 -30 0 -10 -3 -16 -6 -12 -9 8 -54 -47 -54
-66 0 -9 -15 -30 -32 -48 -18 -18 -26 -29 -18 -25 8 4 2 -5 -15 -19 -16 -15
-24 -24 -18 -21 9 5 11 2 7 -8 -3 -9 -10 -13 -15 -10 -8 5 -13 -10 -10 -29 1
-5 -3 -6 -8 -3 -5 3 -15 -2 -22 -11 -12 -14 -12 -16 1 -8 8 4 4 -3 -10 -17
-42 -42 -61 -69 -55 -78 4 -6 2 -10 -3 -10 -5 0 -24 -19 -42 -42 -19 -23 -27
-38 -19 -33 8 5 4 -2 -8 -16 -40 -43 -63 -72 -63 -79 0 -4 -11 -20 -25 -36
-14 -16 -23 -35 -20 -42 3 -7 1 -10 -5 -7 -11 7 -32 -29 -22 -40 4 -5 2 -5 -5
-1 -7 4 -24 -11 -43 -39 -17 -25 -28 -45 -25 -45 3 0 -3 -10 -14 -22 -11 -11
-18 -26 -14 -31 3 -6 1 -7 -5 -3 -11 7 -17 -6 -13 -27 1 -5 -2 -6 -7 -3 -9 5
-48 -54 -44 -67 1 -5 -1 -6 -5 -4 -5 3 -14 -1 -21 -9 -7 -8 -10 -14 -6 -14 3
0 -2 -8 -13 -17 -10 -10 -12 -14 -3 -8 8 5 -4 -10 -27 -34 -24 -23 -43 -47
-43 -53 0 -5 -8 -17 -18 -26 -10 -10 -13 -15 -7 -12 6 3 3 -2 -7 -11 -9 -9
-15 -19 -12 -22 3 -3 -4 -8 -15 -12 -12 -3 -19 -11 -16 -16 4 -5 -1 -12 -9
-15 -9 -3 -14 -10 -11 -14 3 -4 -2 -11 -11 -14 -8 -3 -13 -10 -9 -15 3 -6 0
-13 -8 -18 -12 -8 -54 -68 -47 -68 1 0 -8 -12 -21 -27 -13 -15 -26 -25 -28
-23 -7 8 -7 50 0 78 5 16 4 27 -2 27 -6 0 -7 6 -3 12 12 19 12 48 0 48 -8 0
-7 3 0 8 7 4 11 18 10 32 -1 14 0 29 2 34 3 5 6 25 7 45 2 20 11 59 20 86 10
28 18 55 19 60 1 6 7 24 13 40 6 17 15 39 19 50 4 11 8 22 9 25 9 27 18 48 26
63 6 11 8 21 5 24 -3 3 2 12 10 20 8 9 13 22 10 30 -4 9 -1 11 5 7 7 -4 10 -1
7 7 -3 8 2 20 9 28 8 7 12 20 9 28 -3 8 -1 11 4 8 9 -6 14 10 13 42 -1 7 3 10
8 7 8 -5 11 3 8 22 0 4 3 10 8 13 11 8 47 84 45 94 -2 5 2 6 7 3 11 -7 23 22
15 35 -3 5 -2 9 3 8 22 -4 31 3 28 21 -2 11 1 23 7 26 7 5 8 2 3 -6 -6 -9 -4
-11 4 -6 7 5 10 14 7 22 -3 8 -2 13 2 13 4 -1 14 -1 22 0 13 1 13 2 0 11 -13
8 -12 10 4 10 12 0 16 5 13 14 -4 11 -1 13 10 9 10 -4 14 -2 9 5 -3 6 3 13 15
17 11 4 18 9 16 11 -2 3 20 30 49 60 30 30 51 60 48 66 -5 7 -2 8 5 3 8 -4 21
1 32 14 11 12 24 21 29 21 6 0 24 19 41 43 18 23 29 33 25 22 -6 -19 -6 -19 9
-1 8 10 12 23 8 29 -4 6 -1 7 7 2 8 -5 18 -1 27 10 7 11 13 16 13 12 0 -5 17
10 38 31 21 21 43 37 50 34 7 -2 11 2 10 10 -2 7 3 12 11 10 9 -2 11 3 7 13
-3 9 -2 13 4 10 12 -8 53 19 43 28 -3 4 1 7 9 7 9 0 19 7 22 16 3 9 11 12 18
8 10 -6 10 -5 0 8 -10 13 -9 15 12 13 23 -3 42 17 37 38 -1 5 3 6 9 2 6 -3 24
7 40 24 17 16 30 26 30 23 0 -4 5 1 11 11 6 9 14 15 19 12 12 -7 32 30 22 40
-4 5 -2 5 5 1 7 -3 23 6 37 21 14 15 26 24 26 20 0 -4 6 -2 14 5 8 7 12 16 9
21 -2 4 1 7 8 7 6 0 18 8 26 18 10 11 12 12 8 2 -3 -9 -1 -8 7 3 24 32 30 18
9 -19z m5173 -932 c3 -5 -1 -9 -9 -9 -8 0 -12 4 -9 9 3 4 7 8 9 8 2 0 6 -4 9
-8z m114 -317 c-3 -3 -9 2 -12 12 -6 14 -5 15 5 6 7 -7 10 -15 7 -18z m-6288
-259 c0 -2 -8 -10 -17 -17 -16 -13 -17 -12 -4 4 13 16 21 21 21 13z"/>
</g>
</svg>
